<?xml version="1.0" standalone="no"?><!DOCTYPE svg PUBLIC "-//W3C//DTD SVG 1.1//EN" "http://www.w3.org/Graphics/SVG/1.1/DTD/svg11.dtd"><svg t="1652783995434" class="icon" viewBox="0 0 1024 1024" version="1.1" xmlns="http://www.w3.org/2000/svg" p-id="1997" xmlns:xlink="http://www.w3.org/1999/xlink" width="200" height="200"><defs><style type="text/css">@font-face { font-family: feedback-iconfont; src: url("//at.alicdn.com/t/font_1031158_u69w8yhxdu.woff2?t=1630033759944") format("woff2"), url("//at.alicdn.com/t/font_1031158_u69w8yhxdu.woff?t=1630033759944") format("woff"), url("//at.alicdn.com/t/font_1031158_u69w8yhxdu.ttf?t=1630033759944") format("truetype"); }
</style></defs><path d="M927.7 523.5c-3.8-6.2-10-9.8-17-10-5.9-0.2-11.1 2-16.1 6l5.4-17.2c2.3-7.4-0.5-15.3-6.8-19.7l-246.6-171c-2.8-29.6-15.7-60.6-35.6-84.8-2.5-3-5.1-5.9-7.7-8.7 0.1-0.2 0.1-0.3 0.2-0.5l32.3-88.1c3.4-9.1-1.3-19.3-10.5-22.6-9.1-3.4-19.3 1.3-22.6 10.5L574.3 195c-19-11.2-40.1-17.2-62.2-17.2h-0.5c-21.4 0.1-42 5.8-60.5 16.4l-28.2-76.8c-3.4-9.1-13.5-13.8-22.6-10.5-9.1 3.4-13.8 13.5-10.5 22.6l32.1 87.4c-2.5 2.5-4.9 5.2-7.2 7.9-21 24.6-34.3 55.9-37.2 86.6l-247 171.2c-6.3 4.4-9.1 12.4-6.8 19.7l5.4 17.2c-5.1-4.1-10.2-6.2-16.1-6-7 0.2-13.2 3.8-17 10-24 39.2-34.3 84.3-29.9 130.3 4.4 45.8 23 88.2 53.8 122.5l4.2 4.7c24.7 27.5 58.4 45.1 95.1 49.3 5.8 0.7 11.6 1 17.4 1 30.9 0 61-9.6 86.3-27.7 7.1-5.1 13.2-10.5 18-15.9 8.9-10.1 16.3-21.5 22-33.7 14.5 31.5 36 58.1 55.3 77.8 29.6 30.2 73.8 62.8 93.8 62.8 3.1 0 12.6 0 40-18.4 18-12.1 36.9-27.8 53.2-44.3 19.6-19.7 41.3-46.1 56.1-77.3 5.7 12 13 23.2 21.8 33.1 4.8 5.4 10.8 10.8 18 15.9 25.2 18.1 55.4 27.7 86.3 27.7 5.8 0 11.6-0.3 17.4-1 36.7-4.3 70.5-21.8 95.1-49.3l4.2-4.7c30.8-34.4 49.4-76.7 53.8-122.5 4.1-46-6.2-91.1-30.2-130.3zM511.7 213h0.4c43.9 0 76 32.9 90.8 68.5-10.6-5.8-23.3-5.1-33.4 2.1-10.9 7.7-15.6 21-12.2 33.8l18.5 80.6c-22.5 17.3-48.9 20.5-64.3 20.6-25.6 0.3-47-6.1-63.9-19l18.9-82.3c3.4-12.9-1.4-26.1-12.2-33.8-10-7.1-22.7-7.8-33.3-2.1 14.2-35 45.5-68.2 90.7-68.4z m-95.1 321.2H607l17.2 74.9H399.4l17.2-74.9z m8.1-35.2l14.4-62.6c20.1 11.7 43.7 17.5 70.6 17.5h2.1c17.4-0.2 45.5-3.4 72.4-19.1L599 499H424.7z m-86.4 218.5c-4 17.5-12.3 33.8-24 46.9-3 3.4-7.1 7-12.1 10.6-47.3 34-112.6 26.5-152-17.5l-4.2-4.7C98.3 699.5 87.3 622.3 116.8 559c3.2 4.4 6.4 9.1 8.9 12.7 17 24.7 26.5 37.7 39.9 39.4 5.9 0.8 11.7-0.9 16.2-4.7 5.4-4.6 7.6-11.9 5.4-18.7l-26.1-83.6 269-186.5-83.4 362.9h-0.9c0 1.3 0 2.5 0.1 3.8l-7.6 33.2z m245.5 85.7c-30.5 31.7-62 51.5-72.2 55.7-10-3.9-41.3-23.2-71.7-55.3-11.2-11.8-23.3-26.5-33.7-43.2h211.5c-10.4 16.5-22.6 31.1-33.9 42.8z m-194.7-78c-4.2-11.9-7-24.5-7.8-37.5l10-43.3h241.1l10.7 46.5c-1 11.8-3.8 23.3-7.8 34.3H389.1z m488.4 27.6l-4.2 4.7C834 801.5 768.7 809 721.4 775c-5-3.6-9.1-7.2-12.1-10.6-11.6-13.2-19.9-29.4-24-46.9l-6.8-29.4c0.1-2.5 0.2-5 0.2-7.5h-1.9l-62.3-270.9c0.7-0.7 1.3-1.5 2-2.2l-3.1-2.6-20.1-87.2 269 186.5-26.1 83.6c-2.1 6.8 0 14.1 5.4 18.7 4.5 3.8 10.3 5.5 16.2 4.7 13.3-1.8 22.9-14.7 39.9-39.4 2.5-3.6 5.8-8.3 8.9-12.7 29.7 63.2 18.7 140.4-29.1 193.7z" p-id="1998"></path></svg>